<!DOCTYPE svg PUBLIC "-//W3C//DTD SVG 1.1//EN" "http://www.w3.org/Graphics/SVG/1.1/DTD/svg11.dtd">
<!-- Uploaded to: SVG Repo, www.svgrepo.com, Transformed by: SVG Repo Mixer Tools -->
<svg width="174px" height="174px" viewBox="0 0 24.00 24.00" xmlns="http://www.w3.org/2000/svg" fill="#9ac5db" stroke="#9ac5db" transform="rotate(0)" stroke-width="0.00024000000000000003">
<g id="SVGRepo_bgCarrier" stroke-width="0"/>
<g id="SVGRepo_tracerCarrier" stroke-linecap="round" stroke-linejoin="round" stroke="#CCCCCC" stroke-width="0.096"/>
<g id="SVGRepo_iconCarrier"> <g> <path fill="none" d="M0 0h24v24H0z"/> <path d="M4.873 3h14.254a1 1 0 0 1 .809.412l3.823 5.256a.5.5 0 0 1-.037.633L12.367 21.602a.5.5 0 0 1-.706.028c-.007-.006-3.8-4.115-11.383-12.329a.5.5 0 0 1-.037-.633l3.823-5.256A1 1 0 0 1 4.873 3zm.51 2l-2.8 3.85L12 19.05 21.417 8.85 18.617 5H5.383z"/> </g> </g>
</svg>